<?xml version="1.0" standalone="no"?>
<!DOCTYPE svg PUBLIC "-//W3C//DTD SVG 20010904//EN"
 "http://www.w3.org/TR/2001/REC-SVG-20010904/DTD/svg10.dtd">
<svg version="1.0" xmlns="http://www.w3.org/2000/svg"
 width="500.000000pt" height="500.000000pt" viewBox="0 0 500.000000 500.000000"
 preserveAspectRatio="xMidYMid meet">
<metadata>
Created by potrace 1.14, written by Peter Selinger 2001-2017
</metadata>
<g transform="translate(0.000000,500.000000) scale(0.100000,-0.100000)"
fill="#000000" stroke="none">
<path d="M1630 3601 c-8 -5 -35 -11 -60 -14 -25 -3 -61 -12 -81 -21 -20 -8
-39 -12 -43 -9 -3 4 -6 0 -6 -7 0 -7 -3 -10 -7 -7 -3 4 -13 1 -22 -7 -9 -8
-23 -16 -31 -18 -8 -2 -22 -11 -31 -20 -9 -10 -19 -15 -23 -11 -3 3 -6 1 -6
-5 0 -7 -4 -12 -9 -12 -11 0 -53 -34 -84 -67 -11 -13 -24 -23 -29 -23 -4 0 -7
30 -7 68 0 37 0 75 0 84 -1 16 -24 17 -284 17 -158 0 -289 -4 -297 -9 -8 -5
-10 -10 -5 -10 6 0 10 -37 10 -90 0 -49 -4 -90 -8 -90 -5 0 -5 -5 -1 -12 10
-16 11 -228 1 -228 -5 0 -5 -6 -1 -12 11 -18 12 -48 2 -54 -5 -3 -4 -12 3 -20
9 -11 9 -14 0 -14 -8 0 -9 -5 -1 -19 7 -14 7 -22 0 -26 -8 -5 -7 -11 1 -21 9
-11 8 -14 -2 -14 -10 0 -10 -3 -1 -12 7 -7 12 -17 12 -24 0 -18 131 -146 173
-169 20 -11 37 -24 37 -29 0 -5 3 -7 6 -3 4 3 26 -5 50 -18 39 -22 54 -24 173
-24 l131 -1 1 48 c2 204 7 245 36 301 16 31 83 108 83 95 0 -2 10 2 23 10 12
9 47 18 77 22 30 3 58 8 62 10 4 3 10 -1 14 -7 4 -8 9 -7 15 2 7 11 9 11 9 1
0 -7 4 -11 9 -7 16 9 118 -41 146 -73 34 -38 65 -96 65 -121 0 -11 4 -22 8
-25 5 -3 9 -39 9 -81 0 -41 3 -78 6 -82 4 -3 2 -12 -4 -20 -9 -10 -8 -13 1
-13 10 0 10 -3 1 -14 -10 -11 -9 -16 5 -24 9 -5 25 -7 35 -5 11 3 19 0 19 -6
0 -6 17 -11 39 -11 22 0 43 -5 46 -10 4 -6 10 -8 14 -5 5 2 22 -2 40 -11 17
-8 40 -16 51 -17 11 -1 20 -5 20 -10 0 -5 7 -7 15 -3 8 3 15 1 15 -3 0 -5 14
-14 30 -20 17 -5 30 -15 30 -22 0 -7 3 -10 6 -6 8 7 21 -3 105 -84 38 -36 66
-69 62 -72 -3 -4 -1 -7 5 -7 6 0 14 -9 17 -20 17 -55 23 3 24 258 1 285 1 298
14 320 5 6 6 12 2 12 -10 0 32 74 61 108 28 31 125 77 138 65 3 -4 6 -2 6 3 0
9 36 9 100 0 50 -7 90 -19 90 -27 0 -5 6 -9 14 -9 35 0 129 -149 121 -191 -2
-11 -1 -19 4 -19 4 0 7 -29 7 -65 1 -44 -3 -62 -10 -58 -8 5 -8 3 0 -8 13 -16
14 -436 1 -456 -4 -6 -3 -14 2 -17 11 -7 9 -126 -3 -144 -4 -7 -3 -18 2 -25 5
-7 9 -50 8 -95 -1 -92 2 -102 30 -107 10 -2 19 -4 19 -6 0 -1 52 -3 115 -4 64
-1 125 -7 137 -13 11 -6 23 -9 26 -6 5 6 63 6 180 1 77 -3 79 -1 74 86 -2 28
1 47 7 47 8 0 8 3 1 8 -12 8 -12 43 -1 61 4 6 3 11 -2 11 -10 0 -9 30 2 48 4
6 3 12 -1 12 -10 0 -9 72 1 88 3 6 2 13 -2 16 -10 6 -8 48 3 65 3 6 2 11 -3
11 -10 0 -9 30 2 48 4 6 4 12 -1 12 -9 0 -8 174 2 189 3 6 3 11 -2 11 -10 0
-8 133 1 149 4 6 4 11 -1 11 -10 0 -9 92 1 108 4 7 3 12 -1 12 -10 0 -9 72 0
87 4 6 3 13 0 17 -4 4 -8 30 -9 59 -4 99 -34 227 -59 247 -8 7 -15 19 -15 27
0 30 -120 162 -147 163 -7 0 -13 4 -13 8 0 8 -150 84 -172 88 -5 1 -9 3 -10 4
-2 1 -14 3 -28 4 -14 0 -30 4 -36 8 -6 4 -36 9 -68 10 -31 2 -56 7 -56 12 0 5
-8 2 -17 -5 -9 -8 -14 -9 -10 -2 8 12 -43 11 -77 -3 -15 -6 -17 -4 -11 7 7 11
6 12 -6 2 -8 -6 -26 -14 -39 -16 -14 -2 -32 -6 -40 -10 -8 -3 -39 -13 -67 -23
-29 -10 -53 -22 -53 -27 0 -4 -4 -5 -10 -2 -5 3 -10 1 -10 -5 0 -6 -4 -9 -9
-6 -5 4 -11 3 -13 -1 -1 -5 -23 -21 -48 -38 -24 -16 -78 -63 -118 -103 -41
-40 -76 -71 -77 -70 -2 2 -11 17 -21 34 -69 113 -212 207 -365 240 -77 16
-107 20 -122 18 -9 -1 -17 1 -17 5 0 4 -7 8 -15 8 -8 0 -15 -5 -15 -11 0 -6
-5 -4 -10 4 -9 13 -11 13 -20 0 -6 -10 -10 -11 -10 -2 0 14 -9 15 -30 3z"/>
<path d="M3940 2563 c-30 -7 -73 -25 -96 -38 -71 -41 -157 -150 -169 -214 -2
-9 -4 -16 -5 -16 -4 0 -9 -47 -9 -95 -1 -84 0 -90 9 -90 5 0 7 -6 4 -14 -7
-19 52 -123 92 -161 58 -54 83 -71 117 -80 4 -2 9 -4 12 -5 3 -1 10 -4 15 -5
6 -1 11 -3 13 -5 18 -14 191 -16 221 -2 12 6 37 16 56 23 36 14 177 146 166
156 -3 3 0 13 6 21 7 8 13 19 14 26 2 6 6 22 10 36 3 14 7 40 8 58 0 17 5 32
9 32 5 0 5 4 2 10 -3 5 -8 27 -10 47 -2 21 -10 56 -17 79 -15 46 -97 164 -114
164 -6 0 -18 7 -25 16 -13 16 -58 39 -71 36 -5 -1 -8 3 -8 8 0 6 -3 9 -7 9 -5
-1 -10 0 -13 1 -42 16 -153 18 -210 3z"/>
</g>
</svg>
