<svg xmlns="http://www.w3.org/2000/svg" xmlns:xlink="http://www.w3.org/1999/xlink" width="500" zoomAndPan="magnify" viewBox="0 0 375 374.999991" height="500" preserveAspectRatio="xMidYMid meet" version="1.0"><defs><g/><clipPath id="d2b8253c88"><path d="M 83 161 L 258 161 L 258 282 L 83 282 Z M 83 161 " clip-rule="nonzero"/></clipPath><clipPath id="43f422ec68"><path d="M 92.058594 161.347656 L 263.957031 175.746094 L 255.132812 281.125 L 83.234375 266.730469 Z M 92.058594 161.347656 " clip-rule="nonzero"/></clipPath><clipPath id="802d93d5e1"><path d="M 57.476562 158.453125 L 263.757812 175.730469 L 254.304688 288.582031 L 48.027344 271.308594 Z M 57.476562 158.453125 " clip-rule="nonzero"/></clipPath></defs><rect x="-37.5" width="450" fill="#ffffff" y="-37.499999" height="449.999989" fill-opacity="1"/><rect x="-37.5" width="450" fill="#000000" y="-37.499999" height="449.999989" fill-opacity="1"/><g fill="#dae2e6" fill-opacity="1"><g transform="translate(84.694906, 216.157836)"><g><path d="M 9.671875 0 L 9.671875 -82.75 L 38.234375 -82.75 L 38.234375 -74.03125 L 38.546875 -74.03125 C 45.960938 -81.457031 53.867188 -85.171875 62.265625 -85.171875 C 68.285156 -85.171875 73.925781 -83.929688 79.1875 -81.453125 C 84.457031 -78.984375 88.4375 -75.164062 91.125 -70 C 99.519531 -80.113281 108.660156 -85.171875 118.546875 -85.171875 C 127.367188 -85.171875 134.953125 -82.695312 141.296875 -77.75 C 147.640625 -72.800781 150.8125 -65.054688 150.8125 -54.515625 L 150.8125 0 L 122.265625 0 L 122.265625 -46.78125 C 122.265625 -51.1875 121.050781 -54.867188 118.625 -57.828125 C 116.207031 -60.785156 112.582031 -62.265625 107.75 -62.265625 C 103.550781 -62.265625 100.347656 -61 98.140625 -58.46875 C 95.941406 -55.9375 94.734375 -52.898438 94.515625 -49.359375 L 94.515625 0 L 65.96875 0 L 65.96875 -46.78125 C 65.96875 -51.1875 64.757812 -54.867188 62.34375 -57.828125 C 59.925781 -60.785156 56.296875 -62.265625 51.453125 -62.265625 C 47.046875 -62.265625 43.738281 -60.890625 41.53125 -58.140625 C 39.332031 -55.398438 38.234375 -52.148438 38.234375 -48.390625 L 38.234375 0 Z M 9.671875 0 "/></g></g></g><g fill="#dae2e6" fill-opacity="1"><g transform="translate(235.507064, 216.157836)"><g><path d="M 28.0625 -34.515625 C 33.226562 -34.515625 37.609375 -32.710938 41.203125 -29.109375 C 44.804688 -25.503906 46.609375 -21.125 46.609375 -15.96875 C 46.609375 -10.914062 44.804688 -6.585938 41.203125 -2.984375 C 37.609375 0.617188 33.226562 2.421875 28.0625 2.421875 C 23.007812 2.421875 18.679688 0.617188 15.078125 -2.984375 C 11.472656 -6.585938 9.671875 -10.914062 9.671875 -15.96875 C 9.671875 -21.125 11.472656 -25.503906 15.078125 -29.109375 C 18.679688 -32.710938 23.007812 -34.515625 28.0625 -34.515625 Z M 28.0625 -34.515625 "/></g></g></g><g clip-path="url(#d2b8253c88)"><g clip-path="url(#43f422ec68)"><g clip-path="url(#802d93d5e1)"><path fill="#000000" d="M 85.394531 160.792969 C 94.824219 161.640625 95.136719 172.75 109.167969 177.65625 C 118.914062 181.066406 146.453125 171.003906 167.335938 182.507812 C 179.621094 189.277344 179.585938 200.617188 189.0625 208.570312 C 203.496094 220.683594 229.171875 211.210938 245.878906 221.828125 C 261.320312 231.636719 261.527344 253.800781 248.382812 267.082031 C 227.703125 287.972656 178.320312 282.480469 162.132812 280.679688 C 151.132812 279.457031 89.867188 272.640625 63.917969 236.757812 C 44.695312 210.171875 56.292969 183.449219 67.558594 170.773438 C 70.292969 167.691406 77.261719 160.058594 85.394531 160.792969 Z M 85.394531 160.792969 " fill-opacity="1" fill-rule="nonzero"/></g></g></g><g fill="#dae2e6" fill-opacity="1"><g transform="translate(184.347538, 220.702311)"><g><path d="M 7.953125 3.859375 L 7.890625 5.09375 C 7.410156 5.039062 6.9375 4.925781 6.46875 4.75 C 6.007812 4.570312 5.566406 4.328125 5.140625 4.015625 C 4.523438 3.546875 4.035156 2.992188 3.671875 2.359375 C 3.316406 1.734375 3.085938 1.066406 2.984375 0.359375 C 2.878906 -0.347656 2.910156 -1.054688 3.078125 -1.765625 C 3.253906 -2.484375 3.578125 -3.148438 4.046875 -3.765625 C 4.503906 -4.390625 5.050781 -4.882812 5.6875 -5.25 C 6.332031 -5.613281 7.007812 -5.847656 7.71875 -5.953125 C 8.425781 -6.054688 9.132812 -6.023438 9.84375 -5.859375 C 10.5625 -5.703125 11.226562 -5.390625 11.84375 -4.921875 C 12.269531 -4.609375 12.632812 -4.253906 12.9375 -3.859375 C 13.238281 -3.460938 13.484375 -3.035156 13.671875 -2.578125 C 13.472656 -2.503906 13.269531 -2.4375 13.0625 -2.375 C 12.863281 -2.3125 12.664062 -2.242188 12.46875 -2.171875 C 12.320312 -2.515625 12.140625 -2.832031 11.921875 -3.125 C 11.703125 -3.414062 11.429688 -3.679688 11.109375 -3.921875 C 10.640625 -4.273438 10.128906 -4.515625 9.578125 -4.640625 C 9.023438 -4.773438 8.472656 -4.796875 7.921875 -4.703125 C 7.367188 -4.617188 6.84375 -4.429688 6.34375 -4.140625 C 5.851562 -3.847656 5.429688 -3.460938 5.078125 -2.984375 C 4.722656 -2.515625 4.472656 -2 4.328125 -1.4375 C 4.191406 -0.882812 4.160156 -0.335938 4.234375 0.203125 C 4.316406 0.742188 4.492188 1.257812 4.765625 1.75 C 5.046875 2.25 5.421875 2.675781 5.890625 3.03125 C 6.515625 3.488281 7.203125 3.765625 7.953125 3.859375 Z M 7.953125 3.859375 "/></g></g></g><g fill="#dae2e6" fill-opacity="1"><g transform="translate(194.154083, 227.546664)"><g><path d="M 1.609375 -2.53125 C 1.753906 -2.914062 1.96875 -3.25 2.25 -3.53125 C 2.53125 -3.820312 2.851562 -4.046875 3.21875 -4.203125 C 3.59375 -4.359375 3.984375 -4.441406 4.390625 -4.453125 C 4.804688 -4.460938 5.21875 -4.390625 5.625 -4.234375 C 6.019531 -4.078125 6.367188 -3.851562 6.671875 -3.5625 C 6.972656 -3.269531 7.203125 -2.941406 7.359375 -2.578125 C 7.515625 -2.210938 7.597656 -1.828125 7.609375 -1.421875 C 7.628906 -1.023438 7.566406 -0.632812 7.421875 -0.25 C 7.265625 0.144531 7.039062 0.484375 6.75 0.765625 C 6.46875 1.054688 6.144531 1.28125 5.78125 1.4375 C 5.414062 1.601562 5.023438 1.6875 4.609375 1.6875 C 4.191406 1.695312 3.785156 1.625 3.390625 1.46875 C 2.984375 1.3125 2.628906 1.085938 2.328125 0.796875 C 2.035156 0.515625 1.804688 0.191406 1.640625 -0.171875 C 1.484375 -0.546875 1.398438 -0.929688 1.390625 -1.328125 C 1.378906 -1.734375 1.453125 -2.132812 1.609375 -2.53125 Z M 2.796875 -2.046875 C 2.710938 -1.816406 2.671875 -1.582031 2.671875 -1.34375 C 2.679688 -1.101562 2.726562 -0.878906 2.8125 -0.671875 C 2.90625 -0.460938 3.035156 -0.269531 3.203125 -0.09375 C 3.378906 0.0703125 3.582031 0.195312 3.8125 0.28125 C 4.03125 0.375 4.257812 0.414062 4.5 0.40625 C 4.738281 0.394531 4.960938 0.34375 5.171875 0.25 C 5.390625 0.164062 5.582031 0.0390625 5.75 -0.125 C 5.925781 -0.300781 6.054688 -0.503906 6.140625 -0.734375 C 6.234375 -0.960938 6.273438 -1.191406 6.265625 -1.421875 C 6.253906 -1.660156 6.203125 -1.882812 6.109375 -2.09375 C 6.015625 -2.3125 5.878906 -2.503906 5.703125 -2.671875 C 5.535156 -2.835938 5.34375 -2.96875 5.125 -3.0625 C 4.894531 -3.144531 4.660156 -3.179688 4.421875 -3.171875 C 4.179688 -3.171875 3.957031 -3.125 3.75 -3.03125 C 3.539062 -2.9375 3.351562 -2.804688 3.1875 -2.640625 C 3.019531 -2.472656 2.890625 -2.273438 2.796875 -2.046875 Z M 2.796875 -2.046875 "/></g></g></g><g fill="#dae2e6" fill-opacity="1"><g transform="translate(202.425914, 230.637348)"><g><path d="M 4.109375 0.953125 C 3.710938 -0.160156 3.304688 -1.265625 2.890625 -2.359375 C 2.472656 -3.453125 2.054688 -4.550781 1.640625 -5.65625 L 2.9375 -5.484375 C 3.050781 -5.160156 3.179688 -4.816406 3.328125 -4.453125 C 3.484375 -4.085938 3.632812 -3.726562 3.78125 -3.375 C 3.925781 -3.03125 4.050781 -2.675781 4.15625 -2.3125 C 4.257812 -1.957031 4.347656 -1.609375 4.421875 -1.265625 C 4.566406 -1.578125 4.742188 -1.890625 4.953125 -2.203125 C 5.171875 -2.515625 5.398438 -2.816406 5.640625 -3.109375 C 5.878906 -3.410156 6.113281 -3.710938 6.34375 -4.015625 C 6.582031 -4.328125 6.8125 -4.625 7.03125 -4.90625 L 8.3125 -4.71875 C 7.613281 -3.769531 6.914062 -2.828125 6.21875 -1.890625 C 5.519531 -0.953125 4.816406 -0.00390625 4.109375 0.953125 Z M 4.109375 0.953125 "/></g></g></g><g fill="#dae2e6" fill-opacity="1"><g transform="translate(211.597978, 231.769193)"><g><path d="M 1.765625 -3.125 C 1.816406 -2.613281 2.03125 -2.203125 2.40625 -1.890625 C 2.78125 -1.585938 3.238281 -1.460938 3.78125 -1.515625 C 4.300781 -1.566406 4.710938 -1.78125 5.015625 -2.15625 C 5.316406 -2.539062 5.441406 -2.988281 5.390625 -3.5 C 5.335938 -4.019531 5.125 -4.425781 4.75 -4.71875 C 4.382812 -5.007812 3.941406 -5.128906 3.421875 -5.078125 C 2.878906 -5.023438 2.453125 -4.816406 2.140625 -4.453125 C 1.835938 -4.085938 1.710938 -3.644531 1.765625 -3.125 Z M 0.46875 -2.984375 C 0.425781 -3.390625 0.46875 -3.785156 0.59375 -4.171875 C 0.71875 -4.554688 0.90625 -4.898438 1.15625 -5.203125 C 1.40625 -5.503906 1.710938 -5.757812 2.078125 -5.96875 C 2.453125 -6.175781 2.859375 -6.300781 3.296875 -6.34375 C 3.566406 -6.375 3.820312 -6.359375 4.0625 -6.296875 C 4.300781 -6.234375 4.515625 -6.160156 4.703125 -6.078125 C 4.890625 -6.003906 5.039062 -5.925781 5.15625 -5.84375 C 5.269531 -5.757812 5.328125 -5.703125 5.328125 -5.671875 C 5.316406 -5.785156 5.316406 -5.90625 5.328125 -6.03125 C 5.335938 -6.15625 5.335938 -6.28125 5.328125 -6.40625 L 6.40625 -6.515625 L 6.984375 -0.703125 L 5.84375 -0.59375 L 5.796875 -1.09375 L 5.78125 -1.234375 C 5.78125 -1.203125 5.738281 -1.140625 5.65625 -1.046875 C 5.570312 -0.953125 5.453125 -0.851562 5.296875 -0.75 C 5.140625 -0.644531 4.941406 -0.539062 4.703125 -0.4375 C 4.472656 -0.34375 4.207031 -0.28125 3.90625 -0.25 C 3.46875 -0.207031 3.046875 -0.242188 2.640625 -0.359375 C 2.242188 -0.484375 1.890625 -0.671875 1.578125 -0.921875 C 1.273438 -1.179688 1.023438 -1.484375 0.828125 -1.828125 C 0.628906 -2.179688 0.507812 -2.566406 0.46875 -2.984375 Z M 0.46875 -2.984375 "/></g></g></g><g fill="#dae2e6" fill-opacity="1"><g transform="translate(220.704316, 230.531906)"><g><path d="M 2.125 -0.59375 L 0.875 -0.25 L -2.296875 -11.515625 L -1.046875 -11.859375 Z M 2.125 -0.59375 "/></g></g></g><g fill="#dae2e6" fill-opacity="1"><g transform="translate(224.626761, 229.37142)"><g><path d="M -2.3125 -7.8125 C -2.40625 -8.03125 -2.398438 -8.242188 -2.296875 -8.453125 C -2.203125 -8.660156 -2.054688 -8.804688 -1.859375 -8.890625 C -1.679688 -8.960938 -1.484375 -8.957031 -1.265625 -8.875 C -1.054688 -8.789062 -0.90625 -8.640625 -0.8125 -8.421875 C -0.726562 -8.191406 -0.734375 -7.972656 -0.828125 -7.765625 C -0.929688 -7.566406 -1.070312 -7.429688 -1.25 -7.359375 C -1.445312 -7.273438 -1.648438 -7.269531 -1.859375 -7.34375 C -2.078125 -7.425781 -2.226562 -7.582031 -2.3125 -7.8125 Z M 2.046875 -0.828125 L 0.84375 -0.34375 L -1.328125 -5.765625 L -0.125 -6.25 Z M 2.046875 -0.828125 "/></g></g></g><g fill="#dae2e6" fill-opacity="1"><g transform="translate(134.795732, 194.16518)"><g><path d="M 3.625 -10.953125 C 4.351562 -9.554688 5.066406 -8.160156 5.765625 -6.765625 C 6.460938 -5.378906 7.164062 -3.988281 7.875 -2.59375 C 9.039062 -3.644531 10.203125 -4.6875 11.359375 -5.71875 C 12.523438 -6.757812 13.6875 -7.800781 14.84375 -8.84375 L 12.75 2.390625 L 11.484375 2.15625 L 12.828125 -5.046875 C 12.859375 -5.128906 12.878906 -5.210938 12.890625 -5.296875 C 12.910156 -5.378906 12.929688 -5.457031 12.953125 -5.53125 C 12.097656 -4.65625 11.203125 -3.816406 10.265625 -3.015625 C 9.335938 -2.210938 8.414062 -1.398438 7.5 -0.578125 C 6.976562 -1.609375 6.457031 -2.628906 5.9375 -3.640625 C 5.414062 -4.648438 4.90625 -5.675781 4.40625 -6.71875 L 4.203125 -7.171875 C 4.203125 -7.097656 4.195312 -7.019531 4.1875 -6.9375 C 4.175781 -6.851562 4.164062 -6.765625 4.15625 -6.671875 L 2.8125 0.53125 L 1.53125 0.28125 Z M 3.625 -10.953125 "/></g></g></g><g fill="#dae2e6" fill-opacity="1"><g transform="translate(149.441541, 197.216558)"><g><path d="M 2.96875 -2.046875 C 2.789062 -1.566406 2.800781 -1.101562 3 -0.65625 C 3.195312 -0.21875 3.550781 0.09375 4.0625 0.28125 C 4.5625 0.46875 5.03125 0.453125 5.46875 0.234375 C 5.90625 0.0234375 6.210938 -0.316406 6.390625 -0.796875 C 6.566406 -1.273438 6.550781 -1.726562 6.34375 -2.15625 C 6.144531 -2.59375 5.796875 -2.90625 5.296875 -3.09375 C 4.785156 -3.28125 4.3125 -3.269531 3.875 -3.0625 C 3.445312 -2.863281 3.144531 -2.523438 2.96875 -2.046875 Z M 1.71875 -2.484375 C 1.863281 -2.859375 2.070312 -3.191406 2.34375 -3.484375 C 2.625 -3.773438 2.945312 -4.003906 3.3125 -4.171875 C 3.675781 -4.347656 4.066406 -4.445312 4.484375 -4.46875 C 4.898438 -4.488281 5.316406 -4.425781 5.734375 -4.28125 C 5.984375 -4.1875 6.203125 -4.054688 6.390625 -3.890625 C 6.585938 -3.734375 6.753906 -3.578125 6.890625 -3.421875 C 7.023438 -3.273438 7.125 -3.140625 7.1875 -3.015625 C 7.257812 -2.890625 7.289062 -2.8125 7.28125 -2.78125 C 7.3125 -2.882812 7.359375 -2.988281 7.421875 -3.09375 C 7.492188 -3.207031 7.550781 -3.320312 7.59375 -3.4375 L 8.609375 -3.078125 L 6.59375 2.40625 L 5.515625 2.015625 L 5.6875 1.546875 L 5.734375 1.421875 C 5.722656 1.441406 5.660156 1.472656 5.546875 1.515625 C 5.429688 1.566406 5.28125 1.601562 5.09375 1.625 C 4.90625 1.65625 4.679688 1.660156 4.421875 1.640625 C 4.171875 1.628906 3.90625 1.570312 3.625 1.46875 C 3.207031 1.320312 2.847656 1.101562 2.546875 0.8125 C 2.242188 0.53125 2.003906 0.210938 1.828125 -0.140625 C 1.660156 -0.492188 1.566406 -0.875 1.546875 -1.28125 C 1.523438 -1.6875 1.582031 -2.085938 1.71875 -2.484375 Z M 1.71875 -2.484375 "/></g></g></g><g fill="#dae2e6" fill-opacity="1"><g transform="translate(157.360085, 200.220992)"><g><path d="M 6.265625 -2.1875 C 5.703125 -2.46875 5.164062 -2.53125 4.65625 -2.375 C 4.15625 -2.226562 3.789062 -1.914062 3.5625 -1.4375 L 2.3125 1.125 L 1.15625 0.5625 L 3.703125 -4.6875 L 4.71875 -4.1875 L 4.671875 -4.0625 C 4.578125 -3.832031 4.492188 -3.625 4.421875 -3.4375 C 4.347656 -3.25 4.269531 -3.035156 4.1875 -2.796875 C 4.394531 -2.984375 4.628906 -3.125 4.890625 -3.21875 C 5.160156 -3.320312 5.421875 -3.390625 5.671875 -3.421875 C 5.921875 -3.453125 6.148438 -3.453125 6.359375 -3.421875 C 6.578125 -3.398438 6.753906 -3.359375 6.890625 -3.296875 Z M 6.265625 -2.1875 "/></g></g></g><g fill="#dae2e6" fill-opacity="1"><g transform="translate(162.496879, 202.719775)"><g><path d="M 4.9375 1.203125 C 4.96875 1.410156 4.992188 1.613281 5.015625 1.8125 C 5.035156 2.019531 5.066406 2.226562 5.109375 2.4375 C 4.753906 2.476562 4.40625 2.46875 4.0625 2.40625 C 3.71875 2.34375 3.390625 2.21875 3.078125 2.03125 C 2.703125 1.800781 2.394531 1.515625 2.15625 1.171875 C 1.914062 0.835938 1.742188 0.476562 1.640625 0.09375 C 1.546875 -0.28125 1.523438 -0.664062 1.578125 -1.0625 C 1.640625 -1.46875 1.78125 -1.851562 2 -2.21875 C 2.207031 -2.570312 2.472656 -2.863281 2.796875 -3.09375 C 3.128906 -3.332031 3.488281 -3.5 3.875 -3.59375 C 4.257812 -3.695312 4.65625 -3.71875 5.0625 -3.65625 C 5.46875 -3.59375 5.859375 -3.445312 6.234375 -3.21875 C 6.554688 -3.03125 6.828125 -2.800781 7.046875 -2.53125 C 7.273438 -2.257812 7.453125 -1.960938 7.578125 -1.640625 C 7.378906 -1.566406 7.179688 -1.5 6.984375 -1.4375 C 6.785156 -1.375 6.585938 -1.300781 6.390625 -1.21875 C 6.234375 -1.613281 5.96875 -1.921875 5.59375 -2.140625 C 5.132812 -2.421875 4.671875 -2.503906 4.203125 -2.390625 C 3.742188 -2.285156 3.378906 -2.007812 3.109375 -1.5625 C 2.847656 -1.125 2.769531 -0.664062 2.875 -0.1875 C 2.988281 0.28125 3.273438 0.65625 3.734375 0.9375 C 4.117188 1.164062 4.519531 1.253906 4.9375 1.203125 Z M 4.9375 1.203125 "/></g></g></g><g fill="#dae2e6" fill-opacity="1"><g transform="translate(168.221253, 206.123481)"><g><path d="M 5.546875 4.40625 L 4.515625 3.609375 L 5.078125 2.859375 L 5.546875 2.34375 C 5.078125 2.613281 4.566406 2.722656 4.015625 2.671875 C 3.472656 2.628906 2.984375 2.441406 2.546875 2.109375 C 2.054688 1.734375 1.765625 1.3125 1.671875 0.84375 C 1.585938 0.375 1.691406 -0.0703125 1.984375 -0.5 L 4.5625 -3.859375 L 5.59375 -3.078125 L 3.375 -0.1875 C 3.226562 0.0390625 3.164062 0.289062 3.1875 0.5625 C 3.207031 0.832031 3.367188 1.097656 3.671875 1.359375 C 3.878906 1.523438 4.109375 1.644531 4.359375 1.71875 C 4.609375 1.789062 4.859375 1.816406 5.109375 1.796875 C 5.367188 1.773438 5.609375 1.707031 5.828125 1.59375 C 6.054688 1.476562 6.253906 1.3125 6.421875 1.09375 L 8.140625 -1.140625 L 9.171875 -0.34375 Z M 5.546875 4.40625 "/></g></g></g><g fill="#dae2e6" fill-opacity="1"><g transform="translate(101.295115, 193.157818)"><g><path d="M 6.546875 -2.109375 C 6.609375 -2.628906 6.488281 -3.078125 6.1875 -3.453125 C 5.894531 -3.835938 5.484375 -4.0625 4.953125 -4.125 C 4.421875 -4.195312 3.96875 -4.085938 3.59375 -3.796875 C 3.21875 -3.503906 3 -3.097656 2.9375 -2.578125 C 2.875 -2.078125 2.984375 -1.628906 3.265625 -1.234375 C 3.554688 -0.847656 3.96875 -0.617188 4.5 -0.546875 C 5.03125 -0.484375 5.488281 -0.601562 5.875 -0.90625 C 6.257812 -1.207031 6.484375 -1.609375 6.546875 -2.109375 Z M 7.84375 -1.953125 C 7.789062 -1.546875 7.660156 -1.164062 7.453125 -0.8125 C 7.242188 -0.457031 6.984375 -0.160156 6.671875 0.078125 C 6.359375 0.316406 6 0.492188 5.59375 0.609375 C 5.1875 0.722656 4.769531 0.753906 4.34375 0.703125 C 4.03125 0.660156 3.757812 0.585938 3.53125 0.484375 C 3.300781 0.378906 3.109375 0.269531 2.953125 0.15625 C 2.804688 0.0507812 2.691406 -0.046875 2.609375 -0.140625 C 2.523438 -0.234375 2.484375 -0.296875 2.484375 -0.328125 L 2.46875 -0.1875 L 2.40625 0.3125 L 1.265625 0.15625 L 2.75 -11.453125 L 4.046875 -11.28125 L 3.28125 -5.265625 C 3.25 -5.179688 3.210938 -5.097656 3.171875 -5.015625 C 3.128906 -4.941406 3.09375 -4.863281 3.0625 -4.78125 C 3.0625 -4.8125 3.117188 -4.863281 3.234375 -4.9375 C 3.347656 -5.019531 3.5 -5.097656 3.6875 -5.171875 C 3.875 -5.242188 4.085938 -5.304688 4.328125 -5.359375 C 4.578125 -5.410156 4.84375 -5.414062 5.125 -5.375 C 5.550781 -5.320312 5.945312 -5.191406 6.3125 -4.984375 C 6.675781 -4.773438 6.976562 -4.515625 7.21875 -4.203125 C 7.457031 -3.890625 7.632812 -3.539062 7.75 -3.15625 C 7.863281 -2.769531 7.894531 -2.367188 7.84375 -1.953125 Z M 7.84375 -1.953125 "/></g></g></g><g fill="#dae2e6" fill-opacity="1"><g transform="translate(110.658907, 194.269806)"><g><path d="M 2.671875 3.90625 L 1.375 3.90625 C 1.707031 3.25 2.035156 2.597656 2.359375 1.953125 C 2.691406 1.304688 3.023438 0.660156 3.359375 0.015625 L 0.421875 -5.84375 L 1.71875 -5.84375 C 2.101562 -5.082031 2.515625 -4.304688 2.953125 -3.515625 C 3.390625 -2.734375 3.738281 -1.941406 4 -1.140625 C 4.132812 -1.535156 4.296875 -1.929688 4.484375 -2.328125 C 4.671875 -2.734375 4.867188 -3.128906 5.078125 -3.515625 C 5.285156 -3.898438 5.492188 -4.285156 5.703125 -4.671875 C 5.921875 -5.066406 6.125 -5.453125 6.3125 -5.828125 L 7.609375 -5.828125 C 6.785156 -4.203125 5.960938 -2.578125 5.140625 -0.953125 C 4.316406 0.660156 3.492188 2.28125 2.671875 3.90625 Z M 2.671875 3.90625 "/></g></g></g><g fill="#dae2e6" fill-opacity="1"><g transform="translate(247.584744, 162.053428)"><g><path d="M 6.078125 -1.875 L 6.203125 -1.71875 L 6.0625 0 L 0.703125 0 L 0.828125 -2.234375 L 0.703125 -7.609375 L 6.15625 -7.609375 L 6.28125 -7.4375 L 6.140625 -5.71875 L 4.265625 -5.796875 L 3.0625 -5.796875 L 3.03125 -4.71875 L 4.1875 -4.71875 L 5.421875 -4.765625 L 5.546875 -4.59375 L 5.40625 -2.875 L 4.046875 -2.90625 L 2.984375 -2.90625 L 2.96875 -2.46875 L 3 -1.8125 L 4.125 -1.8125 Z M 6.078125 -1.875 "/></g></g></g><g fill="#dae2e6" fill-opacity="1"><g transform="translate(255.700682, 162.053428)"><g><path d="M 3.578125 -7.75 C 4.328125 -7.75 5.066406 -7.609375 5.796875 -7.328125 L 5.421875 -5.421875 L 5.09375 -5.28125 C 4.757812 -5.476562 4.429688 -5.632812 4.109375 -5.75 C 3.785156 -5.875 3.53125 -5.9375 3.34375 -5.9375 C 3.15625 -5.9375 3.007812 -5.898438 2.90625 -5.828125 C 2.800781 -5.753906 2.75 -5.660156 2.75 -5.546875 C 2.75 -5.398438 2.828125 -5.269531 2.984375 -5.15625 C 3.148438 -5.050781 3.421875 -4.914062 3.796875 -4.75 C 4.234375 -4.550781 4.59375 -4.367188 4.875 -4.203125 C 5.15625 -4.035156 5.398438 -3.800781 5.609375 -3.5 C 5.828125 -3.207031 5.9375 -2.847656 5.9375 -2.421875 C 5.9375 -1.941406 5.800781 -1.507812 5.53125 -1.125 C 5.269531 -0.738281 4.894531 -0.429688 4.40625 -0.203125 C 3.925781 0.0234375 3.363281 0.140625 2.71875 0.140625 C 1.925781 0.140625 1.09375 -0.0078125 0.21875 -0.3125 L 0.546875 -2.34375 L 0.78125 -2.484375 C 1.144531 -2.210938 1.53125 -1.992188 1.9375 -1.828125 C 2.351562 -1.671875 2.695312 -1.59375 2.96875 -1.59375 C 3.1875 -1.59375 3.34375 -1.628906 3.4375 -1.703125 C 3.539062 -1.785156 3.59375 -1.878906 3.59375 -1.984375 C 3.59375 -2.148438 3.507812 -2.289062 3.34375 -2.40625 C 3.175781 -2.519531 2.90625 -2.65625 2.53125 -2.8125 C 2.09375 -3.007812 1.734375 -3.191406 1.453125 -3.359375 C 1.179688 -3.523438 0.941406 -3.753906 0.734375 -4.046875 C 0.535156 -4.335938 0.4375 -4.703125 0.4375 -5.140625 C 0.4375 -5.628906 0.566406 -6.070312 0.828125 -6.46875 C 1.097656 -6.863281 1.472656 -7.175781 1.953125 -7.40625 C 2.429688 -7.632812 2.972656 -7.75 3.578125 -7.75 Z M 3.578125 -7.75 "/></g></g></g><g fill="#dae2e6" fill-opacity="1"><g transform="translate(263.663978, 162.053428)"><g><path d="M 6.03125 -7.4375 L 5.90625 -5.71875 L 4.34375 -5.796875 L 4.203125 -5.796875 L 4.140625 -2.46875 L 4.234375 0 L 1.890625 0 L 2.015625 -2.234375 L 1.953125 -5.796875 L 1.796875 -5.796875 L 0.234375 -5.71875 L 0.09375 -5.890625 L 0.21875 -7.609375 L 5.90625 -7.609375 Z M 6.03125 -7.4375 "/></g></g></g><g fill="#dae2e6" fill-opacity="1"><g transform="translate(271.521588, 162.053428)"><g><path d="M 1.390625 -2.234375 C 1.734375 -2.234375 2 -2.132812 2.1875 -1.9375 C 2.382812 -1.738281 2.484375 -1.460938 2.484375 -1.109375 C 2.484375 -0.734375 2.375 -0.4375 2.15625 -0.21875 C 1.945312 0 1.660156 0.109375 1.296875 0.109375 C 0.929688 0.109375 0.65625 0.015625 0.46875 -0.171875 C 0.28125 -0.367188 0.1875 -0.648438 0.1875 -1.015625 C 0.1875 -1.390625 0.289062 -1.6875 0.5 -1.90625 C 0.71875 -2.125 1.015625 -2.234375 1.390625 -2.234375 Z M 1.390625 -2.234375 "/></g></g></g><g fill="#dae2e6" fill-opacity="1"><g transform="translate(247.584744, 171.803427)"><g><path d="M 2.984375 -6.140625 C 3.609375 -6.140625 4.117188 -6 4.515625 -5.71875 C 4.921875 -5.4375 5.125 -5.046875 5.125 -4.546875 C 5.125 -4.222656 5.023438 -3.882812 4.828125 -3.53125 C 4.640625 -3.175781 4.316406 -2.769531 3.859375 -2.3125 L 3.34375 -1.796875 L 3.390625 -1.734375 L 4.28125 -1.734375 L 5.421875 -1.859375 L 5.546875 -1.71875 L 5.28125 0.09375 L 3.59375 0 L 0.890625 0 L 0.46875 0.03125 L 0.359375 -0.046875 L 0.359375 -1.4375 L 1.875 -2.71875 C 2.1875 -3.007812 2.421875 -3.25 2.578125 -3.4375 C 2.742188 -3.625 2.828125 -3.785156 2.828125 -3.921875 C 2.828125 -4.097656 2.691406 -4.1875 2.421875 -4.1875 C 2.210938 -4.1875 1.972656 -4.132812 1.703125 -4.03125 C 1.429688 -3.925781 1.175781 -3.785156 0.9375 -3.609375 L 0.6875 -3.609375 L 0.3125 -5.390625 C 1.28125 -5.890625 2.171875 -6.140625 2.984375 -6.140625 Z M 2.984375 -6.140625 "/></g></g></g><g fill="#dae2e6" fill-opacity="1"><g transform="translate(255.101835, 171.803427)"><g><path d="M 3.171875 -6.15625 C 3.960938 -6.15625 4.578125 -5.894531 5.015625 -5.375 C 5.460938 -4.851562 5.6875 -4.117188 5.6875 -3.171875 C 5.6875 -2.117188 5.4375 -1.300781 4.9375 -0.71875 C 4.445312 -0.144531 3.757812 0.140625 2.875 0.140625 C 2.082031 0.140625 1.460938 -0.117188 1.015625 -0.640625 C 0.566406 -1.171875 0.34375 -1.910156 0.34375 -2.859375 C 0.34375 -3.890625 0.585938 -4.695312 1.078125 -5.28125 C 1.578125 -5.863281 2.273438 -6.15625 3.171875 -6.15625 Z M 3 -4.015625 C 2.675781 -4.015625 2.445312 -3.941406 2.3125 -3.796875 C 2.175781 -3.648438 2.109375 -3.390625 2.109375 -3.015625 C 2.109375 -2.597656 2.175781 -2.300781 2.3125 -2.125 C 2.445312 -1.957031 2.679688 -1.875 3.015625 -1.875 C 3.335938 -1.875 3.566406 -1.953125 3.703125 -2.109375 C 3.847656 -2.265625 3.921875 -2.53125 3.921875 -2.90625 C 3.921875 -3.3125 3.847656 -3.597656 3.703125 -3.765625 C 3.554688 -3.929688 3.320312 -4.015625 3 -4.015625 Z M 3 -4.015625 "/></g></g></g><g fill="#dae2e6" fill-opacity="1"><g transform="translate(262.888996, 171.803427)"><g><path d="M 2.984375 -6.140625 C 3.609375 -6.140625 4.117188 -6 4.515625 -5.71875 C 4.921875 -5.4375 5.125 -5.046875 5.125 -4.546875 C 5.125 -4.222656 5.023438 -3.882812 4.828125 -3.53125 C 4.640625 -3.175781 4.316406 -2.769531 3.859375 -2.3125 L 3.34375 -1.796875 L 3.390625 -1.734375 L 4.28125 -1.734375 L 5.421875 -1.859375 L 5.546875 -1.71875 L 5.28125 0.09375 L 3.59375 0 L 0.890625 0 L 0.46875 0.03125 L 0.359375 -0.046875 L 0.359375 -1.4375 L 1.875 -2.71875 C 2.1875 -3.007812 2.421875 -3.25 2.578125 -3.4375 C 2.742188 -3.625 2.828125 -3.785156 2.828125 -3.921875 C 2.828125 -4.097656 2.691406 -4.1875 2.421875 -4.1875 C 2.210938 -4.1875 1.972656 -4.132812 1.703125 -4.03125 C 1.429688 -3.925781 1.175781 -3.785156 0.9375 -3.609375 L 0.6875 -3.609375 L 0.3125 -5.390625 C 1.28125 -5.890625 2.171875 -6.140625 2.984375 -6.140625 Z M 2.984375 -6.140625 "/></g></g></g><g fill="#dae2e6" fill-opacity="1"><g transform="translate(270.406087, 171.803427)"><g><path d="M 2.578125 -6.15625 C 3.273438 -6.15625 3.835938 -5.992188 4.265625 -5.671875 C 4.703125 -5.347656 4.921875 -4.925781 4.921875 -4.40625 C 4.921875 -4.113281 4.84375 -3.820312 4.6875 -3.53125 C 4.53125 -3.238281 4.257812 -2.984375 3.875 -2.765625 L 3.875 -2.6875 C 4.25 -2.550781 4.523438 -2.351562 4.703125 -2.09375 C 4.890625 -1.84375 4.984375 -1.515625 4.984375 -1.109375 C 4.984375 -0.671875 4.84375 -0.285156 4.5625 0.046875 C 4.289062 0.378906 3.90625 0.632812 3.40625 0.8125 C 2.914062 1 2.347656 1.09375 1.703125 1.09375 C 1.222656 1.09375 0.757812 1.050781 0.3125 0.96875 L 0.203125 -0.734375 L 0.359375 -0.875 C 0.890625 -0.71875 1.363281 -0.640625 1.78125 -0.640625 C 2.113281 -0.640625 2.359375 -0.679688 2.515625 -0.765625 C 2.679688 -0.859375 2.765625 -1 2.765625 -1.1875 C 2.765625 -1.445312 2.585938 -1.578125 2.234375 -1.578125 L 1.25 -1.578125 L 1.15625 -1.71875 L 1.203125 -3.296875 L 1.734375 -3.3125 C 1.984375 -3.332031 2.1875 -3.390625 2.34375 -3.484375 C 2.5 -3.585938 2.578125 -3.726562 2.578125 -3.90625 C 2.578125 -4.039062 2.53125 -4.140625 2.4375 -4.203125 C 2.351562 -4.265625 2.21875 -4.296875 2.03125 -4.296875 C 1.851562 -4.296875 1.660156 -4.265625 1.453125 -4.203125 C 1.253906 -4.140625 1.015625 -4.046875 0.734375 -3.921875 L 0.5 -3.921875 L 0.171875 -5.515625 C 0.546875 -5.710938 0.9375 -5.867188 1.34375 -5.984375 C 1.757812 -6.097656 2.171875 -6.15625 2.578125 -6.15625 Z M 2.578125 -6.15625 "/></g></g></g></svg>